<svg xmlns="http://www.w3.org/2000/svg" viewBox="0 0 64 64" fill="none">
  <g stroke="#d89a7c" stroke-width="2.6" stroke-linecap="round" stroke-linejoin="round">
    <!-- centre petal -->
    <path d="M32 50 C 22 44, 20 26, 32 12 C 44 26, 42 44, 32 50 Z" />
    <!-- inner left petal -->
    <path d="M30 48 C 18 40, 10 30, 14 14 C 26 20, 34 32, 30 48 Z" />
    <!-- inner right petal -->
    <path d="M34 48 C 46 40, 54 30, 50 14 C 38 20, 30 32, 34 48 Z" />
    <!-- outer left petal -->
    <path d="M28 46 C 14 40, 6 30, 10 12 C 22 16, 30 30, 28 46 Z" />
    <!-- outer right petal -->
    <path d="M36 46 C 50 40, 58 30, 54 12 C 42 16, 34 30, 36 46 Z" />
  </g>
  <path d="M20 52 H 44" stroke="#d89a7c" stroke-width="2.6" stroke-linecap="round" />
</svg>
